PathFileType	4	(X/Y/Z)	C:/Users/opensim2020/Desktop/walking_exp_matlab/subject06_walking16_straight_01.trc	
DataRate	CameraRate	NumFrames	NumMarkers	Units	OrigDataRate	OrigDataStartFrame	OrigNumFrames	
100.00	100.00	6	51	mm	100.00	912	333	
Frame#	Time	LFHD			RFHD			LBHD			RBHD			C7			T10			CLAV			STRN			RBAK			LSHO			LUPA			LELB			LFRM			LWRA			LWRB			LFIN			RSHO			RUPA			RELB			RFRM			RWRA			RWRB			RFIN			LASI			RASI			LPSI			RPSI			LTHI			LKNE			LTIB			LANK			LHEE			LTOE			RTHI			RKNE			RTIB			RANK			RHEE			RTOE			*39			*40			*41			*42			*43			*44			*45			*46			*47			*48			*49			*50			
		X1	Y1	Z1	X2	Y2	Z2	X3	Y3	Z3	X4	Y4	Z4	X5	Y5	Z5	X6	Y6	Z6	X7	Y7	Z7	X8	Y8	Z8	X9	Y9	Z9	X10	Y10	Z10	X11	Y11	Z11	X12	Y12	Z12	X13	Y13	Z13	X14	Y14	Z14	X15	Y15	Z15	X16	Y16	Z16	X17	Y17	Z17	X18	Y18	Z18	X19	Y19	Z19	X20	Y20	Z20	X21	Y21	Z21	X22	Y22	Z22	X23	Y23	Z23	X24	Y24	Z24	X25	Y25	Z25	X26	Y26	Z26	X27	Y27	Z27	X28	Y28	Z28	X29	Y29	Z29	X30	Y30	Z30	X31	Y31	Z31	X32	Y32	Z32	X33	Y33	Z33	X34	Y34	Z34	X35	Y35	Z35	X36	Y36	Z36	X37	Y37	Z37	X38	Y38	Z38	X39	Y39	Z39	X40	Y40	Z40	X41	Y41	Z41	X42	Y42	Z42	X43	Y43	Z43	X44	Y44	Z44	X45	Y45	Z45	X46	Y46	Z46	X47	Y47	Z47	X48	Y48	Z48	X49	Y49	Z49	X50	Y50	Z50	X51	Y51	Z51	

42	0.410	-1034.75330	-801.68341	1649.29980	-904.25116	-806.94464	1635.75342	-1040.88623	-937.77234	1599.64807	-911.38788	-940.27124	1591.39111	-981.79150	-946.94598	1442.73608	-974.14886	-998.64624	1114.79028	-983.92889	-840.20984	1360.21729	-986.89478	-809.83441	1183.68445	-893.75519	-1025.57886	1278.23145	-1144.72339	-897.23267	1394.43140	-1215.53894	-940.28052	1197.34387	-1227.87903	-969.33759	1088.63708	-1258.01465	-973.34790	939.90582	-1228.53345	-925.94055	815.61121	-1258.45728	-992.29700	821.89832	-1268.06750	-963.66663	736.05762	-821.55927	-874.92877	1396.96790	-728.74066	-905.64935	1198.89331	-716.40912	-891.49969	1077.29639	-703.48364	-862.33691	960.65094	-744.71265	-789.75629	831.34601	-699.36182	-838.56537	824.98932	-703.43219	-792.04004	755.06683	-1077.90015	-814.32922	954.85559	-860.41138	-829.87036	954.62482	-1062.74548	-972.88879	978.99829	-894.29840	-977.93182	983.33282	-1152.71069	-825.32623	643.22247	-1123.46289	-776.26849	491.88568	-1126.12231	-729.10663	240.45531	-1091.60840	-670.53381	76.28695	-1042.70569	-701.31158	51.58902	-1090.43481	-522.26257	80.68322	-822.32141	-926.36371	623.78754	-844.52844	-946.16882	498.77039	-858.13904	-1054.67993	250.82997	-913.08105	-1106.15259	71.44070	-958.60278	-1148.19336	50.93121	-911.57806	-955.18817	30.96630	-979.02112	-903.61896	1689.88257																																	 
43	0.420	-1036.51025	-795.38403	1648.25964	-906.39191	-800.84808	1634.86963	-1042.95129	-931.76837	1598.77295	-913.39044	-934.17902	1590.64221	-983.61627	-940.83258	1441.77026	-975.25439	-992.43213	1113.82581	-985.68695	-833.99457	1359.37793	-988.12299	-803.53088	1182.85193	-895.13293	-1019.34210	1277.48633	-1146.67053	-891.63007	1393.46399	-1216.90076	-935.15302	1196.59314	-1228.56885	-964.53278	1087.80444	-1258.64502	-969.24432	939.04584	-1229.35535	-921.71674	814.81628	-1258.67346	-988.24957	821.02667	-1268.14734	-959.68140	735.06683	-823.38586	-868.62939	1396.50232	-730.08429	-899.38837	1198.62769	-717.55603	-885.73981	1076.99939	-704.44562	-856.99506	960.12103	-745.40381	-785.52979	830.15094	-699.72150	-834.21008	824.48480	-703.85760	-788.08539	754.13416	-1078.43005	-807.88428	954.06903	-861.15887	-824.16711	953.79602	-1063.99097	-966.23773	978.17651	-895.56781	-972.03949	982.28308	-1153.73010	-819.43585	642.43311	-1124.77307	-771.33832	490.66211	-1127.95898	-727.43237	237.63435	-1093.21045	-667.98901	74.40145	-1044.16174	-698.97504	49.94238	-1092.57568	-519.79175	77.90823	-823.22095	-920.78516	622.72772	-845.28564	-940.70105	497.72333	-858.74628	-1051.63220	250.82222	-913.00854	-1105.56348	72.13730	-958.38293	-1147.98474	52.17030	-911.68542	-955.10126	30.85724	-981.11774	-897.49432	1689.01782																																	 
44	0.430	-1039.03967	-789.31641	1647.42822	-908.53265	-794.70172	1633.97192	-1045.04712	-925.60577	1597.99023	-915.53363	-927.91266	1589.84155	-985.52539	-934.65002	1440.86157	-976.47601	-986.05859	1112.90576	-987.48645	-827.61469	1358.51038	-989.36066	-797.08051	1181.96167	-896.66370	-1012.95697	1276.72742	-1148.36438	-885.53308	1392.37378	-1217.93115	-929.75452	1195.66174	-1229.48755	-959.33258	1086.88086	-1258.94531	-964.39716	938.07422	-1229.98730	-916.96124	813.88666	-1258.92651	-983.82172	820.13483	-1268.32043	-955.23352	734.08276	-825.25775	-862.27332	1395.96082	-731.53772	-893.10486	1198.38623	-718.84070	-879.81299	1076.69946	-705.42261	-851.78577	959.69202	-746.03967	-781.22772	829.07336	-700.08063	-829.79224	823.94916	-704.25903	-784.37872	753.28528	-1079.02710	-800.99219	953.26654	-861.78760	-818.60925	952.92810	-1065.20374	-959.49072	977.42084	-896.89667	-966.01514	981.21796	-1154.78223	-813.41577	641.61157	-1126.05322	-766.34778	489.34592	-1129.47119	-722.18030	237.29297	-1094.99866	-666.12836	72.33006	-1045.98071	-697.24677	48.02695	-1094.69092	-518.04443	74.52274	-824.08582	-915.23419	621.82251	-845.94757	-935.37262	496.81345	-859.26367	-1048.56531	250.93513	-912.88965	-1104.95044	73.02489	-958.05682	-1147.77856	53.58097	-911.75903	-954.99530	30.74428	-983.29089	-891.23566	1688.28711																																	 
45	0.440	-1040.84448	-782.75415	1646.31799	-910.86774	-788.30603	1633.17834	-1047.30444	-919.31659	1597.13330	-917.67743	-921.71027	1589.19031	-987.57098	-928.24384	1439.87964	-977.81848	-979.60291	1111.98657	-989.35968	-821.22144	1357.63855	-990.65778	-790.55377	1181.12695	-898.29944	-1006.53333	1275.97168	-1150.07410	-878.98029	1391.23218	-1219.04590	-923.85345	1194.61584	-1230.26208	-954.03265	1086.02380	-1259.52222	-959.39148	937.06384	-1230.61536	-911.80377	812.89813	-1259.13879	-978.91510	819.16565	-1268.53503	-950.48248	732.98199	-827.21240	-855.93793	1395.48840	-732.97516	-886.91241	1198.16028	-720.14514	-873.97180	1076.45776	-706.37592	-846.64441	959.31061	-746.72650	-776.80566	828.10431	-700.73358	-825.45105	823.42578	-704.65814	-780.28088	752.32275	-1079.64929	-794.11432	952.53571	-862.45050	-812.95032	952.09052	-1066.49878	-952.69568	976.59528	-898.24805	-959.87183	980.17273	-1155.85315	-807.23767	640.74286	-1127.44641	-761.23053	488.02115	-1131.20044	-719.49078	235.51668	-1096.82031	-665.02600	69.98389	-1047.69751	-696.64655	46.16994	-1096.59766	-517.09924	70.56692	-824.90637	-909.55957	620.92761	-846.75110	-929.82794	495.89832	-859.66071	-1045.51123	251.19627	-912.64447	-1104.35583	74.07903	-957.65039	-1147.53625	55.13713	-911.83087	-954.93280	30.61137	-985.59540	-884.84198	1687.41443																																	 
46	0.450	-1043.30212	-776.34839	1645.38928	-913.21844	-781.95886	1632.41602	-1049.65051	-912.95740	1596.29260	-920.07104	-915.27423	1588.55579	-989.64838	-921.83850	1439.00183	-979.25665	-973.03656	1111.06396	-991.08069	-814.68475	1356.79565	-991.96631	-783.97321	1180.27380	-900.07959	-1000.04309	1275.22046	-1152.14990	-872.33929	1390.21155	-1220.61816	-917.73694	1193.66943	-1231.22607	-948.37250	1085.03882	-1260.58032	-954.54816	936.05695	-1231.30029	-906.18262	811.95746	-1259.22595	-973.44159	818.05725	-1268.66223	-945.11932	731.90698	-829.18848	-849.57526	1395.07849	-734.53748	-880.67816	1197.94751	-721.54083	-868.07343	1076.25195	-707.43066	-841.36102	958.95514	-747.37079	-772.45557	827.10095	-701.34100	-821.02130	822.92395	-705.01746	-776.52911	751.61823	-1080.45935	-787.00067	951.82544	-863.14008	-807.05731	951.19226	-1067.87244	-945.74615	975.79041	-899.67139	-953.50098	979.14276	-1156.94873	-800.95514	639.91095	-1128.89697	-756.22668	486.60806	-1133.13684	-719.03369	232.47324	-1098.49890	-664.56012	67.28149	-1049.43311	-696.42828	43.99220	-1098.43811	-516.88025	65.85560	-825.72479	-903.72229	620.09503	-847.35541	-924.39343	495.16818	-859.91455	-1042.35669	251.49252	-912.26477	-1103.65759	75.17245	-957.10535	-1147.34448	56.73306	-911.84332	-954.86713	30.51316	-988.09735	-878.34558	1686.61133																																	 
47	0.460	-1045.72815	-769.72424	1644.44275	-915.71368	-775.39044	1631.81250	-1052.07776	-906.46625	1595.46777	-922.50177	-908.82593	1587.93652	-991.84821	-915.29651	1438.16028	-980.85730	-966.33344	1110.26086	-992.89014	-808.09705	1356.06213	-993.35718	-777.32458	1179.42542	-901.90625	-993.48938	1274.54553	-1154.15125	-865.51300	1389.02124	-1222.03735	-911.37811	1192.60718	-1232.23523	-942.40857	1084.08496	-1261.24353	-948.77069	934.92206	-1231.97400	-900.27325	810.92084	-1259.43921	-967.69739	816.82397	-1267.84229	-942.82727	728.65930	-831.21436	-843.13782	1394.67627	-736.16705	-874.42938	1197.79089	-723.04919	-862.16333	1076.07349	-708.53381	-836.05878	958.63031	-748.02338	-767.98303	826.17725	-701.81885	-816.62866	822.58936	-705.41235	-772.47174	750.76544	-1081.44617	-779.84277	951.05157	-863.31268	-799.13116	950.52094	-1069.30286	-938.69189	975.00085	-901.10236	-947.01483	978.24371	-1158.17419	-794.53479	639.11584	-1130.45813	-751.39801	485.18433	-1134.65918	-717.08044	230.66643	-1099.19482	-664.33838	64.49688	-1050.16345	-696.26746	42.56900	-1100.79419	-517.22388	59.75042	-826.47540	-897.86163	619.40332	-848.14380	-918.81097	494.39319	-860.07208	-1039.05334	251.93590	-911.72552	-1102.99048	76.36378	-956.37494	-1147.14600	58.48769	-911.84210	-954.70673	30.36559	-990.60565	-871.88965	1685.92114																																	 
